<?xml version="1.0" encoding="UTF-8"?>
<svg id="_レイヤー_1" data-name="レイヤー 1" xmlns="http://www.w3.org/2000/svg" version="1.1" viewBox="0 0 1000 1000">
  <defs>
    <style>
      .cls-1 {
        fill: #fff;
        stroke-width: 0px;
      }
    </style>
  </defs>
  <path class="cls-1" d="M502.3,5.3l20.1,1c16.3.8,23.5,9.6,22.6,27.7l-2,41.2c-.9,18.1-8.9,26.2-25.2,25.5l-20.1-1,4.5-94.4ZM516.9,87.4c4,.2,7.1-.9,9.1-3.3,2-2.5,2.7-5.3,3-12.3l1.7-35.8c.3-7.1,0-9.9-1.8-12.6-1.7-2.5-4.8-3.9-8.7-4.1l-4.4-.2-3.3,68.1,4.4.2Z"/>
  <path class="cls-1" d="M563.7,105.2l-12.6-1.8,10-69.7,12.6,1.8-10,69.7ZM575.3,24.3l-12.6-1.8,1.8-12.6,12.6,1.8-1.8,12.6Z"/>
  <path class="cls-1" d="M607.3,62c.2-6.8-1.1-9.3-5-10.1-3.5-.8-6.4,1.2-7.2,4.8-.9,3.9.4,6.6,6.4,13.8,10.8,13.1,12.8,17.9,10.7,27-2.5,11-11.4,16.4-22.9,13.8-11.3-2.6-16.5-10.4-15.5-24.3h12.4c0,4.1,0,5.6.5,7.3.9,3.1,2.8,5.1,5.5,5.8,3.7.8,6.6-1.1,7.6-5.1.9-4-.2-6.6-6-13.4-10.9-12.9-13.2-18.7-11.2-27.3,2.4-10.6,11.5-16.1,22.7-13.6,10.5,2.4,15.3,9.4,14.5,21.3h-12.5Z"/>
  <path class="cls-1" d="M651.8,80.6c1.6-4.7,2.3-6.6,2.5-7.8.7-3.7-.5-6-3.7-7.1-4-1.4-6.7.8-8.9,7.3l-9.7,28c-2.2,6.3-1.3,9.9,2.6,11.2,3.3,1.2,6-.3,7.8-4.7.5-1,1.3-3.4,2.8-7.6l12.1,4.2-1.1,3.1c-2.7,7.8-4.4,10.6-8,13.6-4.7,3.6-11,4.6-16.9,2.6-5.6-1.9-10.3-6.6-12.1-11.8-1.4-4.7-1-9.3,1.7-17l8-23.3c2.7-7.8,5.2-11.7,9.2-14.5,4.6-3,11.2-3.8,17-1.8,7.6,2.6,12.4,9.2,12.3,17-.1,3-.7,5.1-3.4,12.9l-12.1-4.2Z"/>
  <path class="cls-1" d="M698.6,126.3c-3.5,7.4-6.5,11-10.8,13.4-4.8,2.6-11.2,2.7-16.5.1-5.4-2.6-9.3-7.6-10.3-12.9-.9-4.8,0-9.4,3.6-16.8l10.5-22.1c3.5-7.4,6.5-11,10.8-13.4,4.8-2.6,11.2-2.7,16.5-.1s9.3,7.6,10.3,12.9c.9,4.8,0,9.4-3.6,16.8l-10.5,22.1ZM675,117.8c-2.9,6.1-2.5,9.6,1.3,11.4,3.8,1.8,6.8,0,9.7-6.2l12.7-26.7c2.9-6.1,2.5-9.6-1.3-11.4-3.8-1.8-6.8,0-9.7,6.2l-12.7,26.7Z"/>
  <path class="cls-1" d="M705.6,157l24.3-67.8,11.1,6.9-16.3,41.2,29.1-33.3,10.7,6.6-48.6,52.7-10.2-6.3Z"/>
  <path class="cls-1" d="M761.6,155.3l-7.7,9.8c-4.1,5.2-4.5,8.9-1,11.6,1.9,1.5,4.2,1.7,6.1.7,1.3-.8,1.9-1.2,5.4-5.8.2-.2.8-1,1.7-1.9l10.1,7.9-2,2.6c-4.8,6.1-7.3,8.1-11.5,9.4-5.6,1.7-12,.3-16.9-3.5-4.8-3.8-7.7-9.7-7.6-15.1.1-5,2.1-9.3,7.1-15.7l15.1-19.3c5.1-6.5,8.8-9.3,13.4-10.7,5.3-1.4,11.7,0,16.4,3.7,4.8,3.8,7.5,9.3,7.4,14.9-.2,4.9-2.1,9.1-7.2,15.6l-9,11.5-20-15.6ZM782.1,149.6c4.2-5.4,4.5-8.9,1.1-11.5-3.5-2.7-6.9-1.5-11,3.8l-4,5.1,9.9,7.8,4-5.1Z"/>
  <path class="cls-1" d="M825.4,160.6l-6.9,7.3c8.5-2.5,13.7-1.8,18.7,2.5l-9.7,10.2c-.9-1.7-1.7-2.6-2.7-3.5-2.4-2.2-5.3-3.3-8.2-2.9-3.5.4-6.1,2.1-10.4,6.6l-29.4,30.9-9.2-8.8,48.6-51,9.2,8.8Z"/>
  <path class="cls-1" d="M880.5,222.2c6.3-5.8,7.3-9.3,4.2-13.5-2.9-3.8-7.7-4.1-12.2-.7-5.2,3.9-6.7,8.3-8.1,21.9-1.8,19.9-4.4,26.3-13.6,33.2-11.5,8.7-24.8,7.4-32.8-3.2-8.4-11.1-5.9-24.5,6.1-34.1l10,9.3c-7.6,6.3-9.5,11.8-5.7,16.9,3.2,4.2,8.4,4.5,13.5.6,2.8-2.1,4.8-5.2,5.9-9.1,1-3.6,1.3-4.9,2.2-15.6,1.6-16.2,5-24.1,13.4-30.4,11.2-8.5,24-7,32.1,3.6,7.5,9.9,5.8,20.3-5.1,30.7l-9.9-9.8Z"/>
  <path class="cls-1" d="M900.7,276.2l-5.5-9.1-29.9,18.1c-8.2,5-9.6,7.5-6.8,12.1.7,1.1,1.2,1.7,2.5,3l-10.3,6.2c-2.8-2.6-4.3-4.7-5.8-7.1-2.5-4.1-3-8.5-1.3-12.3,1.6-3.9,3.6-5.8,10.9-10.2l34.2-20.7-4-6.7,9.9-6,4,6.7,16.5-10,6.6,10.9-16.5,10,5.5,9.1-9.9,6Z"/>
  <path class="cls-1" d="M868.6,343.9l-5.5-11.5,6.9-3.3c-8.4-2.5-11.9-4.8-14.1-9.4-1.3-2.8-1.4-5.5-.1-7.8,1.6-2.8,3.5-4.2,11-7.8l49.4-23.7,5.5,11.5-46.7,22.4c-3.7,1.8-4.3,2.1-5.1,2.9-1,.8-1.3,2.2-.8,3.3,1.2,2.4,3.9,3.8,8.9,4.7l48.5-23.3,5.5,11.5-63.5,30.4Z"/>
  <path class="cls-1" d="M935.5,343.6c8.1,3.5,11.3,6.1,12.9,11,1,2.9.7,5.6-.8,7.8-1.9,2.6-3.9,3.8-11.8,6.5l-51.8,17.9-4.2-12,49-16.9c3.9-1.3,4.6-1.6,5.4-2.3,1.1-.7,1.5-2,1.1-3.2-.9-2.5-3.4-4.2-8.3-5.7l-50.9,17.6-4.2-12,66.5-23,4.2,12-7.2,2.5Z"/>
  <path class="cls-1" d="M950.4,394c7.6,4.4,10.5,7.4,11.6,12.4.7,3,0,5.6-1.6,7.6-2.2,2.4-4.3,3.3-12.5,5.1l-53.5,11.9-2.8-12.4,50.6-11.2c4-.9,4.7-1,5.6-1.7,1.2-.6,1.8-1.8,1.5-3.1-.6-2.6-2.9-4.6-7.6-6.6l-52.6,11.7-2.8-12.4,68.7-15.2,2.8,12.4-7.5,1.7Z"/>
  <path class="cls-1" d="M897.1,452.9l-1.7-12.6,69.8-9.3,1.7,12.6-69.8,9.3ZM978.1,442l-1.7-12.6,12.6-1.7,1.7,12.6-12.6,1.7Z"/>
  <path class="cls-1" d="M961.7,471.7c6.8,5.6,9.1,9.1,9.3,14.2.2,3.1-.9,5.6-2.9,7.2-2.6,2-4.8,2.5-13.2,2.9l-54.8,2.7-.6-12.7,51.8-2.5c4.1-.2,4.8-.2,5.8-.7,1.3-.3,2.1-1.5,2-2.8-.1-2.7-2.1-5-6.3-7.8l-53.8,2.6-.6-12.7,70.3-3.4.6,12.7-7.6.4Z"/>
  <path class="cls-1" d="M957.6,552.8c.2-3-.5-5.7-2.3-7.8-2.3.1-2.7.1-7.4-.2l-11.9-.8c-6.8-.4-10.4-1.7-13.8-4.4-3.8-3.4-5.7-8.2-5.4-13.7,0-1.1.1-1.8.4-3.5-1.4-2.1-2.9-3.2-4.6-3.3s-3.4,1.9-4,7.5c-1.4,10.8-2.4,14.6-4.8,17.6-2.9,3.6-7.4,5.3-12.8,5-11.9-.8-17.9-10.1-16.9-26.1.9-13.4,5.9-21.1,13.8-20.6,4.9.3,7.5,3,11.3,12.2,2.8-5.5,5.5-7.7,9.6-7.5,3.8.2,7.2,3,10.9,8.8,4.6-5.8,9.3-7.5,18.6-6.9l13,.8c6.6.4,10.4,1.7,13.8,4.4,3.9,3.4,5.7,8.5,5.3,14.7-.4,6.5-2.9,10.6-8.8,14.1,4.5,2.7,6.8,6.1,6.9,10.2l-10.7-.7ZM891.2,516.4c-4.1-.3-7,3.5-7.4,9.3-.5,7.1,2.2,11.9,6.5,12.2,3.4.2,4.9-1.5,5.8-6.4.2-1,.3-2.4,1.3-9.3-1.5-3.6-3.6-5.6-6.2-5.8ZM937,520.9c-6.2-.4-9,1.1-9.3,5.2-.3,4.1,2.3,6,8.5,6.4l13.7.9c6.4.4,9.2-1.1,9.4-5.2.3-4.1-2.3-6-8.7-6.4l-13.7-.9Z"/>
  <path class="cls-1" d="M984.5,600.4l-4.9,19.5c-4,15.8-14.1,21.1-31.7,16.7l-40-10.1c-17.6-4.4-23.9-13.9-19.9-29.7l4.9-19.5,91.6,23.2ZM901.2,598.5c-1,3.8-.5,7.2,1.4,9.6,2,2.4,4.6,3.7,11.5,5.4l34.7,8.8c6.9,1.7,9.8,1.9,12.7.7,2.8-1.2,4.8-3.9,5.8-7.7l1.1-4.3-66-16.7-1.1,4.3Z"/>
  <path class="cls-1" d="M905.4,651.6l-11.6-4.5c-6.2-2.4-9.8-1.7-11.4,2.4-.9,2.2-.4,4.6,1.1,6.1,1.1,1,1.7,1.4,7.1,3.5.3.1,1.2.5,2.3,1.1l-4.7,12-3-1.2c-7.3-2.8-9.9-4.6-12.3-8.3-3.2-4.9-3.8-11.4-1.5-17.2,2.2-5.7,7-10.2,12.3-11.6,4.8-1.3,9.5-.7,17.1,2.3l22.8,8.9c7.7,3,11.5,5.7,14.1,9.8,2.9,4.6,3.4,11.2,1.2,16.7-2.2,5.7-6.7,9.8-12.2,11.4-4.7,1.2-9.4.6-17-2.4l-13.6-5.3,9.2-23.6ZM916.7,669.6c6.3,2.5,9.8,1.7,11.4-2.2,1.6-4.1-.6-7.1-6.8-9.5l-6.1-2.4-4.6,11.7,6.1,2.4Z"/>
  <path class="cls-1" d="M896.1,715.5c6.5,2,9.2,1.3,11.1-2.2,1.6-3.1.5-6.5-2.8-8.2-3.5-1.8-6.5-1.3-15,2.7-15.4,7.1-20.6,7.8-28.8,3.4-10-5.3-12.9-15.3-7.5-25.7,5.4-10.3,14.3-13.3,27.5-8.8l-3.1,12c-4-1.2-5.5-1.4-7.3-1.4-3.2,0-5.7,1.3-7,3.9-1.8,3.4-.6,6.7,3,8.6,3.6,1.9,6.4,1.5,14.5-2.3,15.3-7.2,21.4-7.9,29.2-3.9,9.7,5.1,12.6,15.3,7.3,25.4-5,9.5-13,12.4-24.3,8.5l3.2-12.1Z"/>
  <path class="cls-1" d="M875.7,763.5l5.8-8.9-29.3-19.1c-8.1-5.3-10.9-5.4-13.8-.9-.7,1.1-1,1.9-1.6,3.5l-10.1-6.6c1.2-3.6,2.3-5.9,3.9-8.3,2.6-4,6.3-6.4,10.5-6.5,4.2-.3,6.8.7,13.9,5.4l33.5,21.8,4.3-6.5,9.7,6.3-4.3,6.5,16.1,10.5-7,10.7-16.1-10.5-5.8,8.9-9.7-6.3Z"/>
  <path class="cls-1" d="M815.4,745.8l7.7-10.2,56.2,42.4-7.7,10.2-56.2-42.4ZM880.6,795l7.7-10.2,10.2,7.7-7.7,10.2-10.2-7.7Z"/>
  <path class="cls-1" d="M848.1,804.6c.9,8.8,0,12.8-3.3,16.6-2.1,2.3-4.5,3.4-7.2,3.1-3.2-.4-5.2-1.6-11.4-7.2l-40.8-36.6,8.5-9.5,38.6,34.6c3.1,2.7,3.6,3.2,4.6,3.6,1.1.6,2.5.4,3.4-.6,1.8-2,2-5,1-10l-40.1-35.9,8.5-9.5,52.4,47-8.5,9.5-5.7-5.1Z"/>
  <path class="cls-1" d="M759.9,803.9c2.8,2.3,3.1,2.7,6,5.3-.1-8,1.5-13.3,5.1-16.4,5.2-4.6,12.9-2.7,19.7,4.9,8.2,9.2,8.2,17.2.4,39.6l3,3.4c5.1,5.7,7.2,6.5,10.3,3.7,3-2.6,2.5-5.8-1.9-11.2l9.8-8.6c8.3,10.8,7.9,21.3-1,29.2-4.3,3.9-9.4,5.5-14,4.3-4.7-1-7.3-3-13.6-10.1l-15.4-17.4c-10.8-12.2-12.3-13.7-17.9-18.2l9.5-8.5ZM784.6,829.9c3-10.5,2.5-16.4-2.3-21.8-3.1-3.5-6.2-4.4-8.2-2.6-2.2,2-2.9,5.4-1.9,10.4l12.4,14Z"/>
  <path class="cls-1" d="M755.5,881.2l8.6-6.2-20.5-28.3c-5.6-7.8-8.2-8.9-12.6-5.8-1,.7-1.6,1.4-2.8,2.7l-7.1-9.8c2.4-3,4.3-4.7,6.6-6.3,3.9-2.8,8.2-3.7,12.1-2.3,4.1,1.3,6.1,3.1,11.1,10l23.4,32.4,6.3-4.6,6.8,9.4-6.3,4.6,11.3,15.6-10.3,7.5-11.3-15.6-8.6,6.2-6.8-9.4Z"/>
  <path class="cls-1" d="M705.6,843l10.8-6.7,37.2,59.8-10.8,6.7-37.2-59.8ZM748.8,912.4l10.8-6.7,6.7,10.8-10.8,6.7-6.7-10.8Z"/>
  <path class="cls-1" d="M675.2,885.3c-3.7-7.3-4.8-11.9-4.1-16.7.9-5.4,4.7-10.5,10-13.2,5.3-2.7,11.6-2.8,16.5-.3,4.3,2.2,7.4,5.8,11.1,13.1l11.1,21.8c3.7,7.3,4.8,11.9,4.1,16.7-.9,5.4-4.7,10.5-10,13.2-5.3,2.7-11.6,2.8-16.5.3-4.3-2.2-7.4-5.8-11.1-13.1l-11.1-21.8ZM696.2,871.7c-3.1-6.1-6.1-7.9-9.9-5.9-3.8,1.9-4.1,5.4-1,11.5l13.5,26.4c3.1,6.1,6.1,7.9,9.9,5.9,3.8-1.9,4.1-5.4,1-11.5l-13.5-26.4Z"/>
  <path class="cls-1" d="M667.3,931.4c-3.3,8.2-5.9,11.4-10.6,13.2-2.9,1.1-5.6.9-7.8-.6-2.7-1.9-3.9-3.8-6.8-11.7l-19.2-51.3,11.9-4.5,18.2,48.6c1.4,3.8,1.7,4.5,2.4,5.3.7,1.1,2.1,1.5,3.3,1,2.5-.9,4.1-3.5,5.5-8.4l-18.9-50.4,11.9-4.5,24.7,65.9-11.9,4.5-2.7-7.2Z"/>
  <path class="cls-1" d="M604,938.8c2.9,6.1,5.2,7.8,9,6.8,3.4-.9,5.1-3.9,4.2-7.5-1-3.8-3.3-5.7-12-9.4-15.6-6.7-19.5-10.1-21.8-19.2-2.8-11,2.7-19.8,14.1-22.7,11.3-2.8,19.4,1.8,24.9,14.6l-11,5.7c-1.8-3.8-2.6-5-3.8-6.3-2.2-2.4-4.8-3.3-7.5-2.6-3.7.9-5.4,4-4.4,8s3.2,5.8,11.4,9.2c15.5,6.6,20.2,10.7,22.4,19.2,2.7,10.6-2.9,19.6-14.1,22.4-10.4,2.6-17.9-1.5-22.6-12.4l11.1-5.7Z"/>
  <path class="cls-1" d="M463.4,993.4l1.8-63.7c.4-14,1.7-19.1,6.4-24.5,4-4.6,10.1-7.2,16.6-7,6.7.2,12.7,3.2,16.3,8,4.4,5.7,5.4,10.9,5,24.8l-1.8,63.7-14.2-.4,1.8-62.2c.3-8.9,0-13.2-.6-15.2-1-3.4-3.5-5.5-6.9-5.6-3.5-.1-6.3,2.1-7.4,6-.5,1.8-.9,6.4-1.1,14.3l-1.8,62.2-14.2-.4Z"/>
  <path class="cls-1" d="M434.5,958c-6.9,5.5-10.7,7.1-15.7,6.3-3.1-.5-5.3-2-6.5-4.3-1.4-2.9-1.5-5.2-.2-13.5l8.4-54.2,12.6,1.9-7.9,51.2c-.6,4.1-.7,4.8-.5,5.8,0,1.3,1.1,2.3,2.3,2.5,2.7.4,5.3-1,8.9-4.6l8.2-53.2,12.6,1.9-10.7,69.6-12.6-1.9,1.2-7.6Z"/>
  <path class="cls-1" d="M373.5,941.1l8,2,14.4-57,12.4,3.1-14.4,57,7.7,1.9-2.9,11.3-7.7-1.9-2,7.8c-1.7,6.6-3,9-6,11-3.5,2.3-8,2.9-13,1.7-2.6-.7-4.5-1.4-6.6-2.7l2.7-10.6c1.6.7,2.4.9,3.4,1.1,4.4,1.1,6.5-.7,8.1-7.2l1.1-4.4-8-2,2.9-11.3Z"/>
  <path class="cls-1" d="M340,891.9c2.8-7.7,5.4-11.6,9.4-14.4,4.5-3,10.8-3.8,16.4-1.8s10,6.6,11.6,11.8c1.3,4.7.9,9.3-1.9,17.1l-8.2,23.1c-2.8,7.7-5.4,11.6-9.4,14.4-4.5,3-10.8,3.8-16.4,1.8-5.6-2-10-6.6-11.6-11.8-1.3-4.7-.9-9.3,1.9-17.1l8.2-23.1ZM364.3,897.8c2.3-6.4,1.6-9.8-2.4-11.3-4-1.4-6.7.8-9,7.2l-10,27.9c-2.3,6.4-1.6,9.8,2.4,11.3,4,1.4,6.7-.8,9-7.2l10-27.9Z"/>
  <path class="cls-1" d="M298.4,924.9l4.3-9.1c-7.2,5-12.4,6.1-18.5,3.5l6-12.7c1.4,1.3,2.4,1.9,3.7,2.5,2.9,1.4,6.1,1.4,8.7.2,3.2-1.5,5.1-3.9,7.8-9.5l18.2-38.6,11.5,5.4-30,63.7-11.5-5.4Z"/>
  <path class="cls-1" d="M244.9,883.5c2.6,1.5,5.3,2.2,8,1.5.9-2.1,1.1-2.5,3.5-6.5l6.1-10.2c3.5-5.8,6.2-8.5,10.2-10.2,4.7-1.8,9.9-1.4,14.6,1.5,1,.6,1.6.9,3,1.9,2.5-.3,4.2-1.2,5-2.6,1.2-1.9-.2-3.9-4.9-7-9-6.2-11.9-8.8-13.4-12.3-1.9-4.3-1.4-9.1,1.4-13.7,6.1-10.2,17.2-11.4,30.9-3.2,11.6,6.9,16.1,14.8,12,21.7-2.5,4.3-6.1,5.3-16,4.5,3.6,5,4.4,8.4,2.3,11.9-2,3.3-6,5-12.8,5.7,3.1,6.8,2.4,11.7-2.3,19.7l-6.7,11.2c-3.4,5.7-6.2,8.5-10.2,10.2-4.8,1.9-10.1,1.2-15.5-2-5.6-3.3-8.1-7.5-8.5-14.3-4.5,2.8-8.6,3.3-12.2,1.4l5.5-9.2ZM282.7,879.9c3.2-5.4,3.1-8.5-.4-10.6-3.5-2.1-6.4-.7-9.6,4.7l-7,11.8c-3.3,5.5-3.2,8.7.3,10.8,3.5,2.1,6.4.7,9.6-4.8l7-11.8ZM307.6,841.1c2.1-3.5,0-7.9-4.9-10.8-6.1-3.6-11.6-3.5-13.8.2-1.7,2.9-.9,5.1,3.1,8.1.8.6,2,1.4,7.7,5.4,3.9.4,6.7-.7,8-2.8Z"/>
  <path class="cls-1" d="M242.9,848.1l7.6-9.9c4-5.3,4.4-9,.9-11.6-1.9-1.5-4.3-1.6-6.1-.6-1.3.8-1.9,1.3-5.4,5.9-.2.2-.8,1-1.7,1.9l-10.2-7.8,2-2.6c4.7-6.2,7.2-8.2,11.4-9.5,5.6-1.8,12-.5,16.9,3.3,4.8,3.7,7.9,9.6,7.8,15,0,5-2,9.4-6.9,15.8l-14.9,19.5c-5,6.5-8.6,9.4-13.3,10.9-5.3,1.5-11.7.2-16.4-3.4-4.8-3.7-7.6-9.2-7.6-14.9.2-4.9,2-9.2,7-15.7l8.8-11.6,20.2,15.4ZM222.5,854c-4.1,5.4-4.4,9-1,11.6,3.5,2.7,7,1.4,11-3.9l4-5.2-10-7.6-4,5.2Z"/>
  <path class="cls-1" d="M175.9,824.8l7.8,7.2,23.8-25.6c6.6-7,7.2-9.8,3.2-13.4-.9-.9-1.7-1.3-3.2-2.2l8.2-8.8c3.4,1.8,5.4,3.3,7.5,5.2,3.5,3.3,5.2,7.3,4.6,11.5-.5,4.2-1.9,6.6-7.7,12.8l-27.2,29.2,5.7,5.3-7.9,8.5-5.7-5.3-13.1,14.1-9.3-8.7,13.1-14.1-7.8-7.2,7.9-8.5Z"/>
  <path class="cls-1" d="M150.3,797.1l7.2,7.8,25.9-23.6c7.1-6.5,7.9-9.2,4.3-13.1-.9-.9-1.5-1.5-3-2.4l8.9-8.1c3.2,2.1,5.1,3.7,7.1,5.8,3.2,3.6,4.6,7.7,3.7,11.8-.8,4.2-2.4,6.4-8.7,12.1l-29.5,26.9,5.2,5.8-8.6,7.8-5.2-5.8-14.2,13-8.6-9.4,14.2-13-7.2-7.8,8.6-7.8Z"/>
  <path class="cls-1" d="M175.1,733.1c-2.5,2.6-3,2.9-5.8,5.5,8,.6,13.1,2.6,16,6.5,4.1,5.6,1.6,13.1-6.5,19.2-9.9,7.4-17.8,6.7-39.5-2.9l-3.6,2.7c-6.1,4.6-7,6.7-4.6,10,2.4,3.2,5.5,2.9,11.3-1l7.8,10.4c-11.5,7.3-21.9,6.1-29.1-3.4-3.5-4.7-4.6-9.8-3.1-14.3,1.4-4.6,3.6-7.1,11.2-12.7l18.6-13.9c13.1-9.7,14.7-11.1,19.7-16.3l7.6,10.2ZM147.1,755.5c10.2,3.9,16.1,3.9,21.9-.4,3.7-2.8,4.9-5.8,3.3-7.9-1.8-2.4-5.2-3.4-10.2-2.8l-15,11.2Z"/>
  <path class="cls-1" d="M101.7,737c-7.2-1.2-10.9-3.3-13.3-7.5-2.1-3.6-2-7.4.3-10.8,2.3-3.4,4.9-5.4,13.1-10.2l24.4-14.1c8.2-4.8,11.2-6,15.4-6.3,4.1-.3,7.5,1.6,9.5,5.1,2.4,4.2,2.4,8.4-.1,15.3l5.9-3.4,6.4,11-81.7,47.4-6.4-11,26.7-15.5ZM144.8,712c.7-3,.6-5.2-.5-7.1s-2.8-2.8-4.5-2.6c-1.9.1-2.9.6-7.2,3l-24.6,14.3c-4.3,2.5-5.3,3.2-6.2,4.8-1,1.4-1,3.4,0,5.2s2.9,3.1,5.9,4l37.1-21.5Z"/>
  <path class="cls-1" d="M135.3,664.2l5.4,11.5-85.5,40.2-5.4-11.5,85.5-40.2Z"/>
  <path class="cls-1" d="M96.3,655.9l11.7-4.3c6.2-2.3,8.5-5.2,7-9.4-.8-2.3-2.7-3.7-4.9-3.8-1.5,0-2.2,0-7.7,2.1-.3,0-1.2.4-2.4.8l-4.5-12.1,3.1-1.1c7.3-2.7,10.5-3.1,14.7-2,5.7,1.5,10.4,6,12.5,11.8,2.1,5.7,1.5,12.3-1.5,16.9-2.7,4.2-6.7,6.8-14.3,9.6l-23,8.5c-7.7,2.8-12.4,3.4-17.1,2.1-5.2-1.5-10-6.1-12-11.7-2.1-5.7-1.5-11.8,1.6-16.6,2.7-4,6.6-6.7,14.3-9.5l13.7-5.1,8.8,23.8ZM75.8,650c-6.4,2.4-8.5,5.2-7,9.2,1.5,4.1,5.1,4.9,11.4,2.6l6.1-2.3-4.4-11.8-6.1,2.3Z"/>
  <path class="cls-1" d="M86.5,578l21.1-.3,2.3,13.8-95.7.5-3.1-18.2,90.4-31.9,2.4,14.4-20,6.7,2.5,14.9ZM35.2,579.3l38-1-1.8-10.9-36.2,11.9Z"/>
  <path class="cls-1" d="M5.4,503l94.4-4,.5,12.7-6.8.3c5.9,4.4,8.1,8,8.3,12.8.2,4.1-1.7,7.4-5.3,9.4s-6.8,2.6-16.3,3l-28.2,1.2c-9.5.4-12.8.1-16.5-1.6-3.8-1.7-5.9-4.9-6.1-9-.2-4.8,1.8-8.6,7.2-13.5l-30.8,1.3-.5-12.7ZM43.7,514.1c-2,2.4-2.9,4.4-2.8,6.5,0,2.1,1.2,3.8,2.7,4.4,1.6.8,2.9.9,7.8.7l28.4-1.2c5-.2,6.1-.4,7.7-1.3,1.5-.8,2.4-2.5,2.4-4.6,0-2.1-1.2-4.1-3.4-6.2l-42.9,1.8Z"/>
  <path class="cls-1" d="M100.7,478.7l-71.2,10.4.9-13,44-4.9-43.1-10.1.8-12.6,69.4,18.2-.8,12Z"/>
  <path class="cls-1" d="M72.9,430.2l12.3,2.2c6.6,1.2,10-.2,10.7-4.6.4-2.4-.5-4.5-2.3-5.7-1.3-.8-2-1.1-7.7-2.1-.3,0-1.3-.2-2.5-.6l2.3-12.7,3.2.6c7.7,1.4,10.6,2.6,13.7,5.7,4.1,4.2,5.9,10.4,4.8,16.5-1.1,6-4.9,11.4-9.8,13.8-4.4,2.2-9.2,2.5-17.2,1.1l-24.1-4.3c-8.1-1.4-12.4-3.3-15.8-6.8-3.8-4-5.5-10.3-4.5-16.2,1.1-6,4.7-11,9.7-13.5,4.4-2.1,9.1-2.4,17.1-1l14.4,2.5-4.4,25ZM58.2,414.8c-6.7-1.2-10,.2-10.7,4.4-.8,4.3,2,6.8,8.5,8l6.4,1.1,2.2-12.4-6.4-1.1Z"/>
  <path class="cls-1" d="M55.2,372.7c-4.5-7.6-5.6-11.6-4.1-16.5.9-3,2.7-5,5.2-5.9,3.1-1,5.4-.8,13.4,1.6l52.5,15.7-3.7,12.2-49.7-14.8c-3.9-1.2-4.6-1.4-5.7-1.3-1.3,0-2.4.7-2.8,2-.8,2.6.3,5.4,3.4,9.4l51.6,15.4-3.7,12.2-67.4-20.2,3.7-12.2,7.3,2.2Z"/>
  <path class="cls-1" d="M81.6,311.3l-4,9.8,32.4,13.3c8.9,3.7,11.7,3.3,13.7-1.7.5-1.2.7-2,.9-3.8l11.1,4.6c-.5,3.8-1.2,6.2-2.3,8.9-1.8,4.5-5,7.4-9.1,8.4-4.1,1.1-6.8.6-14.7-2.7l-37-15.2-3,7.2-10.7-4.4,3-7.2-17.8-7.3,4.8-11.8,17.8,7.3,4-9.8,10.7,4.4Z"/>
  <path class="cls-1" d="M155.2,296.8l-6,11.3-6.8-3.6c3,8.3,3.2,12.4.8,16.9-1.5,2.8-3.6,4.3-6.2,4.7-3.2.4-5.4-.3-12.8-4.2l-48.4-25.7,6-11.3,45.8,24.3c3.6,1.9,4.3,2.3,5.3,2.3,1.3.3,2.5-.3,3.1-1.4,1.3-2.4.8-5.4-1.5-9.9l-47.6-25.2,6-11.3,62.2,33Z"/>
  <path class="cls-1" d="M108.4,239.7l8.4,5.5c-4-7.9-4.2-13.1-.8-18.9l11.7,7.7c-1.5,1.2-2.2,2.1-3,3.3-1.8,2.7-2.3,5.8-1.4,8.6,1,3.4,3.1,5.6,8.3,9l35.6,23.5-7,10.6-58.7-38.8,7-10.6Z"/>
  <path class="cls-1" d="M159.7,232.7l9.7,7.8c5.2,4.2,8.8,4.6,11.6,1.2,1.5-1.9,1.8-4.2.8-6.1-.7-1.3-1.2-1.9-5.7-5.5-.2-.2-1-.8-1.9-1.7l8.1-10,2.5,2.1c6.1,4.9,8,7.4,9.2,11.6,1.6,5.7.1,12-3.8,16.8-3.8,4.7-9.8,7.6-15.2,7.3-5-.2-9.3-2.2-15.6-7.3l-19-15.4c-6.4-5.2-9.2-8.9-10.5-13.6-1.4-5.3.2-11.7,3.9-16.3,3.8-4.7,9.4-7.3,15.1-7.1,4.9.3,9.1,2.3,15.5,7.4l11.3,9.2-16,19.7ZM154.3,212.2c-5.3-4.3-8.8-4.6-11.5-1.3-2.8,3.4-1.6,6.9,3.6,11.1l5.1,4.1,7.9-9.8-5.1-4.1Z"/>
  <path class="cls-1" d="M187.9,174.7c-5.6-3.8-8.4-4-11.2-1.3-2.5,2.5-2.4,6,.2,8.6,2.8,2.8,5.8,3.2,15.1,2,16.8-2.1,21.9-1.2,28.5,5.5,8,8.1,7.7,18.5-.6,26.7-8.3,8.2-17.7,8.3-28.8,0l6.6-10.5c3.5,2.3,4.8,3,6.5,3.5,3.1.9,5.8.4,7.8-1.6,2.7-2.7,2.6-6.2-.3-9.1-2.9-2.9-5.7-3.3-14.5-2.2-16.7,2.2-22.8,1.1-29-5.2-7.7-7.8-7.4-18.4.7-26.4,7.7-7.6,16.2-7.8,25.7-.8l-6.7,10.6Z"/>
  <path class="cls-1" d="M256.4,157l9.1,19-11.6,7.9-40.6-86.7,15.2-10.4,66.9,68.7-12,8.2-14.5-15.3-12.5,8.6ZM233.7,110.9l16.8,34.1,9.1-6.2-26-27.9Z"/>
  <path class="cls-1" d="M332.1,137l-24.2-32.9,11.4,39.2-10.1,4.9-42.4-57.7,10.8-5.3,24.1,34-11.6-40,9-4.4,24.4,32.7-11.7-38.9,10.4-5.1,20,68.6-10.2,5Z"/>
  <path class="cls-1" d="M382.7,117.6c-1.6-3.2-1.8-3.7-3.4-7.2-3.1,7.4-6.7,11.6-11.2,13-6.6,2.1-12.9-2.6-16.1-12.3-3.8-11.7-.7-19,15.4-36.4l-1.4-4.3c-2.4-7.3-4.1-8.8-8-7.5-3.8,1.2-4.6,4.3-2.7,11l-12.4,4c-3.3-13.2,1.2-22.7,12.5-26.4,5.5-1.8,10.8-1.3,14.5,1.7,3.9,2.8,5.6,5.6,8.5,14.7l7.2,22.1c5,15.5,5.8,17.5,9.1,23.8l-12.1,3.9ZM370.4,83.9c-7,8.4-8.8,14-6.6,20.9,1.4,4.4,3.9,6.5,6.5,5.6,2.8-.9,4.9-3.8,5.9-8.8l-5.8-17.8Z"/>
  <path class="cls-1" d="M397.3,29.4l-12.4,2.9-2.9-12.4,12.4-2.9,2.9,12.4ZM415.7,109.1l-12.4,2.9-15.9-68.6,12.4-2.9,15.9,68.6Z"/>
  <path class="cls-1" d="M443.2,44.6l-10.5,1.7,5.5,34.5c1.5,9.5,3.3,11.7,8.6,10.8,1.3-.2,2.1-.5,3.7-1.2l1.9,11.9c-3.5,1.6-6,2.2-8.8,2.7-4.8.8-9-.4-11.9-3.4-3.1-3-4-5.5-5.4-13.9l-6.3-39.4-7.7,1.2-1.8-11.5,7.7-1.2-3-19,12.6-2,3,19,10.5-1.7,1.8,11.5Z"/>
</svg>